<svg version="1.1" id="Layer_1" xmlns="http://www.w3.org/2000/svg" xmlns:xlink="http://www.w3.org/1999/xlink" x="0px" y="0px"
	 width="100%" viewBox="0 0 256 192" enable-background="new 0 0 256 192" xml:space="preserve">
<path fill="#000000" opacity="1.000000" stroke="none" 
	d="
M106.238510,107.180229 
	C104.517593,107.493835 103.981903,108.717773 105.596199,108.636566 
	C110.989182,108.365273 116.185104,111.596535 121.665184,109.365761 
	C122.841469,108.886932 124.294991,109.016655 125.622894,108.995087 
	C132.084137,108.890106 132.817291,109.531479 133.151306,115.912674 
	C133.481949,122.229568 133.770294,128.550476 133.940338,134.873306 
	C134.038147,138.509445 133.396423,142.215927 137.377808,144.573914 
	C138.642563,145.322968 139.221130,147.169632 137.974304,148.537643 
	C136.348663,150.321259 134.098969,150.205078 131.907639,149.855026 
	C129.458771,149.463821 127.910789,148.168335 127.998077,145.532059 
	C128.219101,138.856354 127.502922,132.237137 126.905296,125.608917 
	C126.787712,124.304779 126.714928,122.996605 125.494209,121.666214 
	C125.494209,131.852081 125.494209,142.037933 125.494209,152.748642 
	C137.553421,155.279800 150.614319,156.109329 163.872787,155.625122 
	C161.859955,159.065582 159.051193,158.975174 156.295990,158.696167 
	C153.318893,158.394699 150.371338,157.811279 147.403000,157.409027 
	C146.088181,157.230850 144.298874,156.592178 143.501938,157.193069 
	C138.054977,161.300079 131.801880,159.451675 126.011932,159.407013 
	C120.104698,159.361481 114.304802,158.367523 108.284569,159.481628 
	C105.448021,160.006561 105.138557,157.090836 106.787964,154.917953 
	C107.676254,153.747726 108.984451,152.941910 109.463799,151.400314 
	C111.580132,144.594254 109.550217,141.638336 102.481499,141.338669 
	C95.841568,141.057144 94.711121,140.018127 96.279633,133.482773 
	C97.812042,127.097816 97.022781,120.582001 97.608109,114.187355 
	C97.974586,110.183525 94.909561,105.254013 94.705376,99.973503 
	C91.909081,100.818176 89.661865,102.077492 87.217026,100.845085 
	C85.878914,100.170570 85.127083,99.241104 85.108734,97.759140 
	C85.088921,96.159096 86.104912,94.872902 87.474663,95.118187 
	C93.546120,96.205421 95.389153,91.273346 98.562828,87.952827 
	C106.503151,79.645111 114.686638,71.569992 122.755676,63.384895 
	C123.923126,62.200657 125.037010,60.957924 126.107964,59.685276 
	C130.063446,54.984894 130.921997,55.116852 134.835495,59.558048 
	C143.978622,69.934036 154.004837,79.461990 163.880661,89.126785 
	C166.008240,91.208900 166.699768,92.833229 165.944534,96.250641 
	C164.636032,102.171707 165.021698,108.467186 164.631027,115.848076 
	C163.813705,111.693222 163.430557,108.662811 162.599243,105.760773 
	C161.177322,100.796944 158.516510,96.987396 153.427048,94.711937 
	C148.773178,92.631226 147.030350,87.420380 144.175201,83.534088 
	C142.121017,80.738045 140.055771,78.865234 136.719009,78.408920 
	C131.335892,77.672745 125.980492,78.779472 121.041145,80.324150 
	C115.014351,82.208908 113.009232,94.273712 117.742172,98.472672 
	C120.949722,101.318336 125.372772,99.899063 129.254089,100.307564 
	C130.850143,100.475540 132.499817,99.529915 134.433075,100.433777 
	C135.316833,104.721825 133.489166,106.955467 129.077850,107.026611 
	C121.583061,107.147491 114.085999,107.127823 106.238510,107.180229 
M102.978714,115.516144 
	C102.601509,116.993469 102.638573,118.202820 104.651680,118.201508 
	C111.655334,118.196953 118.658997,118.199753 125.662651,118.199753 
	C125.697258,117.688568 125.731873,117.177391 125.766479,116.666206 
	C118.225945,116.099098 110.685417,115.531990 102.978714,115.516144 
z"/>
<path fill="#000000" opacity="1.000000" stroke="none" 
	d="
M112.353554,71.354294 
	C106.813309,76.909180 101.503006,82.194084 96.229591,87.515549 
	C94.141045,89.623123 91.981026,91.177574 88.616951,89.365280 
	C89.484245,86.100746 92.025856,84.356407 94.033554,82.299675 
	C104.256859,71.826714 114.599236,61.469860 124.807640,50.982533 
	C129.065643,46.608200 131.260162,46.305828 135.591843,50.633358 
	C147.234924,62.265312 158.766235,74.009178 170.333252,85.717178 
	C171.142929,86.536736 172.058380,87.314293 172.208649,88.910088 
	C169.245590,91.596489 166.999832,89.740150 164.819885,87.556610 
	C154.472107,77.191780 144.010941,66.935532 133.869781,56.372173 
	C131.290604,53.685627 129.731842,53.869431 127.416748,56.249229 
	C122.541039,61.261192 117.544960,66.156044 112.353554,71.354294 
z"/>
<path fill="#000000" opacity="1.000000" stroke="none" 
	d="
M153.488281,65.501579 
	C146.305054,58.299038 139.385498,51.325367 132.465958,44.351696 
	C137.990295,44.037323 141.211472,47.075436 143.967789,50.521595 
	C147.031601,54.352200 150.367416,57.639244 154.937698,59.669945 
	C156.536377,60.380280 158.262436,61.663536 159.071289,63.151985 
	C164.255783,72.692383 172.313614,79.693634 179.810715,87.200829 
	C180.163223,87.553810 180.548248,87.895645 180.814636,88.309311 
	C181.644485,89.597969 183.682724,90.893188 181.681046,92.478699 
	C180.131500,93.706093 178.575226,92.838814 177.444000,91.284431 
	C173.520554,85.893364 168.812088,81.231735 164.021088,76.618973 
	C160.431259,73.162704 157.163254,69.372162 153.488281,65.501579 
z"/>
<path fill="#000000" opacity="1.000000" stroke="none" 
	d="
M159.832306,139.138885 
	C153.126953,141.413971 146.380432,141.187531 139.653122,141.041214 
	C137.524796,140.994949 136.839981,139.405075 136.993591,137.574524 
	C137.281357,134.145203 137.745026,130.730652 138.116470,127.476898 
	C140.211975,126.883224 139.640900,128.683670 140.437500,129.148819 
	C141.544342,128.901993 141.108963,126.805344 143.141022,127.220589 
	C144.857788,133.341339 148.568665,136.725479 155.721390,135.391830 
	C162.809723,134.070160 163.805252,128.994415 164.326630,123.074501 
	C164.825333,128.535553 165.831528,133.840302 164.474701,138.296677 
	C162.430481,140.443588 161.471115,134.811295 159.832306,139.138885 
z"/>
<path fill="#000000" opacity="1.000000" stroke="none" 
	d="
M83.405029,85.411842 
	C88.455612,81.380409 91.501274,75.397911 98.192123,73.808769 
	C92.921860,82.326332 83.172333,87.575676 81.035667,98.806488 
	C76.100456,92.840393 80.637444,89.444412 83.405029,85.411842 
z"/>
<path fill="#000000" opacity="1.000000" stroke="none" 
	d="
M109.931213,62.913040 
	C107.200729,65.466133 104.742889,67.789253 102.285057,70.112381 
	C109.023033,59.666378 116.270233,49.782986 128.050797,44.394188 
	C122.101822,50.490482 116.152840,56.586777 109.931213,62.913040 
z"/>
<path fill="#000000" opacity="1.000000" stroke="none" 
	d="
M85.207214,157.861847 
	C86.852333,155.484451 89.542755,155.991028 91.297935,156.473465 
	C94.617889,157.385986 98.051254,157.757584 101.565666,158.637131 
	C96.629433,162.202103 90.093735,161.927429 85.207214,157.861847 
z"/>
</svg>